<svg width="22" height="16" viewBox="0 0 22 16" fill="none" xmlns="http://www.w3.org/2000/svg">
<path fill-rule="evenodd" clip-rule="evenodd" d="M4 0C2.89543 0 2 0.89543 2 2C0.895431 2 0 2.89543 0 4V14C0 15.1046 0.895431 16 2 16H18C19.1046 16 20 15.1046 20 14C21.1046 14 22 13.1046 22 12V2C22 0.895431 21.1046 0 20 0H4ZM4 1H20C20.5523 1 21 1.44772 21 2V12C21 12.5523 20.5523 13 20 13V4C20 2.89543 19.1046 2 18 2L3 2C3 1.44772 3.44772 1 4 1ZM18 3H2C1.44772 3 1 3.44772 1 4V4.21691L10.4859 9.90846L19 4.23241V4C19 3.44772 18.5523 3 18 3ZM19 5.43426L10.5141 11.0915L1 5.38309V14C1 14.5523 1.44772 15 2 15H18C18.5523 15 19 14.5523 19 14V5.43426Z" fill="white"/>
</svg>
